PathFileType	4	(X/Y/Z)	C:\Users\Admin\Desktop\Capture Files\05302019 Reflex Trials\StaticTrial_2-Unnamed.trc
DataRate	CameraRate	NumFrames	NumMarkers	Units	OrigDataRate	OrigDataStartFrame	OrigNumFrames
300.00	300.00	      18	0	mm	300.00	2172	      2482
Frame#	Time	
		

2172	7.237	579.28241	-624.78339	918.19885	817.16754	-768.06616	1021.20728	497.60034	-500.20892	874.76978	863.56097	-846.12036	1273.28467	430.63708	-313.20953	456.00867	179.83659	-512.50098	611.31354	157.25641	-529.05005	409.75092	893.47644	-727.56500	1113.59302	290.31439	-498.58960	730.20105				182.95876	-588.83936	725.32977	370.22250	-426.32532	715.31348	499.09900	-365.56213	739.49353				427.50671	-327.86353	640.25659	
2173	7.240	579.25714	-624.76544	918.21149	817.17981	-768.04443	1021.21509	497.59619	-500.21667	874.76660	863.45544	-845.91296	1273.30127	430.66248	-313.23111	456.01157	179.82567	-512.50061	611.31049	157.28668	-529.07654	409.74158	893.44537	-727.55341	1113.59229	290.31036	-498.59039	730.19922				182.96767	-588.85663	725.34015	370.22812	-426.32370	715.30017	499.06561	-365.56158	739.48602				427.51108	-327.87366	640.25458	
2174	7.243	579.27734	-624.79065	918.20026	817.17615	-768.01355	1021.19873	497.60126	-500.19980	874.77289	863.49194	-845.99487	1273.27148	430.61923	-313.21619	456.01147	179.84099	-512.50427	611.31604	157.27310	-529.05719	409.75696	893.51611	-727.63947	1113.60901	290.34583	-498.60300	730.20563				182.93600	-588.85205	725.33960	370.24005	-426.33069	715.30591	499.08133	-365.54800	739.49335				427.51086	-327.87735	640.24689	
2175	7.247	579.26935	-624.77905	918.20715	817.20245	-768.04816	1021.21069	497.57986	-500.23361	874.76093	863.62036	-846.21179	1273.28320	430.62442	-313.20279	455.97916	179.84407	-512.51178	611.30310	157.27637	-529.03021	409.76117	893.48114	-727.59100	1113.61682	290.34402	-498.60281	730.20679				182.97221	-588.83472	725.31396	370.20459	-426.31564	715.32202	499.07538	-365.56317	739.49951				427.50897	-327.87552	640.24243	
2176	7.250	579.26959	-624.81085	918.20953	817.17340	-768.01764	1021.22095	497.58130	-500.19733	874.76294	863.30389	-845.72314	1273.25439	430.62668	-313.21893	456.01086	179.85046	-512.49170	611.31580	157.28252	-529.04926	409.75446	893.51703	-727.65826	1113.59021	290.32904	-498.58600	730.19495				182.96751	-588.84540	725.33173	370.22180	-426.30835	715.29205	499.08490	-365.55905	739.48737				427.49811	-327.87393	640.25604	
2177	7.253	579.27045	-624.78870	918.21094	817.17175	-768.03839	1021.17096	497.59387	-500.20975	874.75977	863.44055	-845.87738	1273.29211	430.59961	-313.19736	455.96887	179.84549	-512.46704	611.31134	157.28665	-529.02661	409.75580	893.48181	-727.58154	1113.59790	290.33249	-498.58841	730.20520				182.96982	-588.83093	725.32233	370.22482	-426.33380	715.29999	499.08633	-365.56317	739.49353				427.50659	-327.88708	640.25439	
2178	7.257	579.26886	-624.80591	918.19507	817.21466	-768.06470	1021.19666	497.59384	-500.23563	874.74615	863.54041	-846.04779	1273.25647	430.62112	-313.22894	455.97644	179.86276	-512.48083	611.32837	157.29105	-529.01434	409.75827	893.49298	-727.57306	1113.60547	290.34814	-498.57449	730.21265				182.96234	-588.80933	725.32587	370.22186	-426.32919	715.30103	499.09033	-365.56030	739.49780				427.49326	-327.87723	640.23962	
2179	7.260	579.26239	-624.79163	918.20917	817.16956	-768.05463	1021.18494	497.58527	-500.23239	874.77454	863.69342	-846.29767	1273.31470	430.59836	-313.23126	455.95813	179.87071	-512.49091	611.32172	157.29999	-529.01447	409.76691	893.48407	-727.60193	1113.58057	290.34091	-498.56854	730.19635				182.96111	-588.83246	725.33319	370.22723	-426.31409	715.30591	499.06381	-365.54129	739.48566				427.50046	-327.89636	640.23553	
2180	7.263	579.28003	-624.80353	918.19324	817.19891	-768.03400	1021.19495	497.59662	-500.22946	874.76746	863.54816	-846.03748	1273.25476	430.60028	-313.22568	455.96384	179.85561	-512.46277	611.31744	157.29990	-529.00952	409.76071	893.46991	-727.59064	1113.56873	290.36633	-498.58002	730.21613				182.96713	-588.80756	725.35596	370.22430	-426.33228	715.29541	499.07996	-365.57486	739.49512				427.49899	-327.89029	640.23669	
2181	7.267	579.26294	-624.80457	918.19391	817.20398	-768.09259	1021.19763	497.58328	-500.22183	874.75928	863.69403	-846.18848	1273.25293	430.61258	-313.23492	455.95621	179.85634	-512.46411	611.32587	157.30067	-529.02081	409.75964	893.49585	-727.62726	1113.60718	290.34744	-498.55319	730.22192				182.96152	-588.81635	725.34540	370.21994	-426.32773	715.29388	499.08499	-365.57123	739.49432				427.49832	-327.89127	640.21301	
2182	7.270	579.26709	-624.79315	918.20825	817.20752	-768.07526	1021.19928	497.57877	-500.23361	874.75854	863.63086	-846.16663	1273.26318	430.59796	-313.23886	455.94571	179.87157	-512.45587	611.31213	157.31396	-528.96259	409.75848	893.45813	-727.56268	1113.57263	290.36661	-498.55927	730.21503				182.96837	-588.82654	725.32855	370.23770	-426.34064	715.27930	499.08408	-365.56445	739.47882				427.50705	-327.91959	640.22540	
2183	7.273	579.29059	-624.80896	918.18970	817.14081	-768.02136	1021.20642	497.58139	-500.22281	874.76648	863.54199	-846.00073	1273.23486	430.63754	-313.26645	455.98111	179.86760	-512.46411	611.31555	157.32101	-528.97662	409.76639	893.54175	-727.64313	1113.58179	290.36810	-498.56082	730.21039				182.98109	-588.81488	725.32666	370.22122	-426.33282	715.29999	499.08502	-365.55917	739.49030				427.49957	-327.90030	640.22827	
2184	7.277	579.28741	-624.79456	918.17261	817.09998	-767.99744	1021.19867	497.58124	-500.22931	874.77008	863.84277	-846.49255	1273.29089	430.60950	-313.23517	455.94785	179.86732	-512.44794	611.32233	157.33228	-528.97839	409.75577	893.49951	-727.62268	1113.56128	290.35855	-498.55615	730.20764				182.97211	-588.80334	725.33948	370.20862	-426.32239	715.28564	499.07956	-365.57239	739.46759				427.51196	-327.89862	640.22192	
2185	7.280	579.26495	-624.79535	918.19476	817.22656	-768.10626	1021.18439	497.58615	-500.24625	874.74109	863.46326	-845.90216	1273.24683	430.63885	-313.26331	455.98959	179.88725	-512.43768	611.30615	157.32796	-528.95056	409.75302	893.51740	-727.63074	1113.55823	290.38156	-498.55948	730.20947				182.99133	-588.81311	725.32727	370.22104	-426.33163	715.28424	499.07660	-365.55588	739.48163				427.50204	-327.89124	640.21918	
2186	7.283	579.26971	-624.79272	918.18689	817.22327	-768.07153	1021.20050	497.58105	-500.20633	874.76160	863.56030	-846.04144	1273.23560	430.61737	-313.25858	455.94296	179.90105	-512.43854	611.29858	157.32631	-528.95343	409.76044	893.44727	-727.59473	1113.55115	290.38437	-498.55344	730.20337				183.00938	-588.81665	725.31171	370.22803	-426.34784	715.27881	499.06470	-365.56006	739.47736				427.49207	-327.89386	640.21527	
2187	7.287	579.26666	-624.79865	918.16864	817.15021	-768.02814	1021.16211	497.58456	-500.23477	874.75787	863.48596	-845.98810	1273.23047	430.60815	-313.26089	455.93280	179.89008	-512.43158	611.30750	157.32039	-528.93549	409.76062	893.52374	-727.63257	1113.56482	290.37643	-498.56644	730.22107				182.99788	-588.78650	725.32483	370.21481	-426.31641	715.29016	499.06750	-365.56693	739.48010				427.49915	-327.91617	640.20245	
2188	7.290	579.26434	-624.78375	918.17712	817.11279	-768.01965	1021.18506	497.57150	-500.21960	874.74866	863.53503	-846.04028	1273.20825	430.61755	-313.26373	455.92514	179.87314	-512.41388	611.31921	157.34431	-528.93390	409.74997	893.49664	-727.64398	1113.54883	290.38889	-498.54416	730.20502				182.98645	-588.79883	725.32831	370.22363	-426.33820	715.27197	499.08194	-365.57214	739.48602				427.49243	-327.90491	640.20923	
2189	7.293	579.24603	-624.77557	918.17450	817.15454	-768.00354	1021.17499	497.57730	-500.21536	874.75415	863.59326	-846.17896	1273.26099	430.63382	-313.25571	455.93835	179.89172	-512.42383	611.30786	157.34575	-528.93677	409.74435	893.48993	-727.62970	1113.52563	290.39288	-498.54709	730.21381				183.00601	-588.78528	725.31061	370.22900	-426.33716	715.27325	499.08273	-365.56564	739.47510				427.51379	-327.90207	640.20282	
